<svg xmlns="http://www.w3.org/2000/svg" viewBox="0 0 1200 760" fill="none">
  <defs>
    <linearGradient id="rise" x1="112" x2="1032" y1="596" y2="154" gradientUnits="userSpaceOnUse">
      <stop stop-color="#2563eb"/>
      <stop offset=".48" stop-color="#0f9f75"/>
      <stop offset="1" stop-color="#d97706"/>
    </linearGradient>
    <pattern id="grid" width="60" height="60" patternUnits="userSpaceOnUse">
      <path d="M60 0H0v60" stroke="#8ea5c9" stroke-width="1"/>
    </pattern>
  </defs>
  <rect width="1200" height="760" fill="url(#grid)" opacity=".22"/>
  <path d="M86 618h1016" stroke="#9aaad0" stroke-width="3" stroke-linecap="round"/>
  <path d="M112 572c84-106 151-92 214-126 75-41 69-126 160-139 88-12 117 81 204 65 101-18 118-153 215-175 64-14 115 17 171 79" stroke="url(#rise)" stroke-width="7" stroke-linecap="round" stroke-linejoin="round"/>
  <path d="M174 544v-88m0 44h-38m76 0h-38M286 500v-142m0 48h-43m86 0h-43M398 562v-168m0 68h-43m86 0h-43M510 474v-152m0 54h-43m86 0h-43M622 516v-128m0 46h-43m86 0h-43" stroke="#5276b7" stroke-width="5" stroke-linecap="round"/>
  <path d="M178 436c42-70 103-104 184-109 70-4 127 15 172 58 18 17 47 15 63-4l82-101 33 85c43 4 82 20 117 47l75-34-31 78c29 43 38 89 28 140" stroke="#0f9f75" stroke-width="8" stroke-linecap="round" stroke-linejoin="round" opacity=".68"/>
  <path d="M682 190c74-34 143-30 205 12 52 35 82 84 89 148l91 45-83 35c-22 57-68 98-139 123l-52 81-21-75c-66 0-121-18-164-54" stroke="#d97706" stroke-width="8" stroke-linecap="round" stroke-linejoin="round" opacity=".55"/>
  <circle cx="112" cy="572" r="10" fill="#2563eb"/>
  <circle cx="486" cy="307" r="10" fill="#0f9f75"/>
  <circle cx="905" cy="197" r="10" fill="#d97706"/>
  <g font-family="Inter, Arial, sans-serif" font-size="34" font-weight="800" letter-spacing="3" opacity=".36">
    <text x="122" y="154" fill="#2563eb">&#8377;</text>
    <text x="392" y="122" fill="#7c3aed">&#8364;</text>
    <text x="666" y="628" fill="#0f9f75">$</text>
  </g>
</svg>
