<svg xmlns="http://www.w3.org/2000/svg" viewBox="0 0 1120 720" fill="none">
  <defs>
    <linearGradient id="history" x1="90" x2="1010" y1="560" y2="170" gradientUnits="userSpaceOnUse">
      <stop stop-color="#2563eb"/>
      <stop offset=".5" stop-color="#7c3aed"/>
      <stop offset="1" stop-color="#d97706"/>
    </linearGradient>
  </defs>
  <path d="M82 560h960M82 440h960M82 320h960M82 200h960" stroke="#9aaad0" stroke-width="2" opacity=".55"/>
  <path d="M156 628V92M312 628V92M468 628V92M624 628V92M780 628V92M936 628V92" stroke="#b6c2d9" stroke-width="2" opacity=".48"/>
  <path d="M110 572c86-116 148-99 210-132 72-38 67-125 154-137 88-11 114 83 199 68 98-17 112-159 208-179 57-12 103 19 151 72" stroke="url(#history)" stroke-width="7" stroke-linecap="round" stroke-linejoin="round"/>
  <path d="M117 492c91 4 118-95 188-88 75 8 74 129 153 144 87 16 122-111 210-98 80 12 86 123 171 130 69 6 111-56 172-122" stroke="#0f9f75" stroke-width="5" stroke-linecap="round" stroke-linejoin="round" opacity=".62"/>
  <circle cx="110" cy="572" r="12" fill="#2563eb"/>
  <circle cx="474" cy="303" r="12" fill="#7c3aed"/>
  <circle cx="881" cy="192" r="12" fill="#d97706"/>
  <circle cx="1011" cy="458" r="10" fill="#0f9f75"/>
  <path d="M207 178a96 96 0 0 1 137-62M804 580a114 114 0 0 0 167-66" stroke="#7c3aed" stroke-width="4" stroke-linecap="round" opacity=".62"/>
  <path d="M250 114l48 3-25 41M925 518l46-13-12 46" stroke="#2563eb" stroke-width="4" stroke-linecap="round" stroke-linejoin="round" opacity=".7"/>
  <g font-family="Inter, Arial, sans-serif" font-size="30" font-weight="800" letter-spacing="3" opacity=".34">
    <text x="116" y="142" fill="#2563eb">$</text>
    <text x="364" y="616" fill="#7c3aed">&#8377;</text>
    <text x="600" y="132" fill="#d97706">&#8364;</text>
  </g>
</svg>
